<?xml version="1.0" standalone="no"?>
<!DOCTYPE svg PUBLIC "-//W3C//DTD SVG 20010904//EN"
 "http://www.w3.org/TR/2001/REC-SVG-20010904/DTD/svg10.dtd">
<svg version="1.0" xmlns="http://www.w3.org/2000/svg"
 width="750.000000pt" height="745.000000pt" viewBox="0 0 750.000000 745.000000"
 preserveAspectRatio="xMidYMid meet">

<g transform="translate(0.000000,745.000000) scale(0.100000,-0.100000)"
fill="#000000" stroke="none">
<path d="M0 3725 l0 -3725 3750 0 3750 0 0 3725 0 3725 -3750 0 -3750 0 0
-3725z m4170 3230 c168 -22 396 -69 544 -111 405 -118 820 -332 1173 -605 137
-106 463 -432 569 -569 373 -480 600 -996 699 -1583 159 -951 -103 -1954 -708
-2707 -47 -58 -110 -132 -141 -165 l-57 -60 26 53 c35 72 33 142 -5 152 -14 4
-59 -1 -100 -11 -97 -23 -210 -34 -210 -21 0 5 9 30 20 54 32 73 53 178 41
205 -16 36 -49 29 -152 -34 -197 -119 -239 -127 -277 -53 -33 65 -25 155 37
449 l30 143 74 87 c148 174 301 390 365 517 62 123 77 193 77 364 0 143 -2
162 -29 245 -15 50 -67 178 -116 285 -184 410 -208 523 -220 1045 -5 193 -13
375 -19 405 -35 182 -146 411 -280 579 -28 35 -51 65 -51 68 0 2 -7 39 -16 81
-23 111 -87 262 -161 376 -239 369 -518 570 -946 681 -75 19 -122 25 -205 25
-161 0 -247 -32 -390 -142 l-63 -49 -112 55 c-186 91 -254 92 -444 4 -62 -28
-116 -63 -175 -111 -33 -27 -66 -43 -108 -53 -33 -7 -86 -27 -118 -42 -31 -16
-79 -35 -107 -42 -136 -34 -328 -95 -391 -125 -48 -22 -95 -55 -145 -102 -114
-106 -149 -130 -219 -148 -186 -48 -357 -163 -479 -324 -150 -197 -274 -462
-346 -737 -47 -178 -41 -322 20 -549 13 -49 31 -117 40 -150 24 -89 45 -231
45 -305 0 -36 -7 -119 -15 -185 -32 -261 -37 -334 -32 -450 10 -201 52 -365
117 -460 45 -66 72 -83 125 -81 51 3 51 2 40 35 -4 13 -2 28 4 34 8 8 6 16 -6
29 -18 20 -29 115 -16 135 6 8 21 7 60 -5 46 -15 53 -20 53 -44 0 -39 10 -58
30 -58 20 0 23 -6 40 -95 7 -33 16 -68 21 -77 5 -10 9 -24 9 -31 0 -38 68
-217 127 -332 73 -143 232 -317 389 -426 87 -61 242 -145 319 -174 28 -10 55
-21 60 -25 18 -12 128 -39 250 -61 97 -17 161 -21 340 -22 139 0 242 4 280 12
163 34 206 45 285 73 47 17 97 33 113 35 l27 5 0 -108 c0 -257 66 -419 243
-596 106 -106 275 -212 372 -232 22 -5 40 -21 65 -57 19 -28 78 -93 132 -145
82 -78 114 -101 191 -138 138 -66 201 -79 349 -74 101 4 138 10 203 32 99 35
191 84 267 143 41 33 73 49 115 58 32 7 71 16 87 20 49 13 23 -9 -132 -112
-170 -114 -445 -256 -648 -337 -258 -102 -550 -175 -849 -213 -195 -24 -615
-24 -810 0 -427 55 -782 164 -1170 360 -460 233 -873 582 -1189 1004 -272 363
-466 771 -581 1222 -276 1079 2 2251 731 3091 118 136 351 361 478 459 335
261 732 470 1121 589 222 68 491 120 732 142 145 13 557 4 703 -15z m-760
-1264 c152 -55 301 -152 430 -281 78 -77 106 -113 155 -200 21 -36 45 -78 55
-95 9 -16 32 -57 50 -90 19 -33 54 -91 78 -129 24 -37 42 -70 40 -72 -2 -1
-64 17 -138 40 -74 24 -182 54 -240 66 -109 23 -308 38 -354 26 -31 -8 -34
-34 -8 -65 14 -18 39 -25 147 -40 151 -22 240 -37 310 -53 128 -29 242 -61
275 -78 68 -35 137 -98 193 -177 30 -43 101 -130 157 -193 172 -194 182 -214
261 -490 l41 -145 -7 -145 c-3 -80 -11 -188 -17 -240 -5 -52 -10 -133 -10
-180 1 -66 -1 -78 -8 -55 -5 16 -7 38 -4 50 3 11 1 32 -5 45 -5 14 -10 20 -10
13 -1 -12 -39 -74 -61 -101 -6 -7 -15 -10 -19 -8 -9 6 -61 -120 -61 -146 0 -9
-3 -18 -8 -20 -4 -1 -24 -52 -44 -113 -56 -170 -153 -368 -210 -429 -10 -11
-23 -32 -30 -47 -7 -15 -16 -25 -20 -23 -4 3 -8 1 -8 -5 0 -6 -21 -30 -47 -53
-26 -24 -57 -52 -69 -64 -12 -12 -37 -31 -56 -42 -18 -11 -42 -29 -53 -39 -22
-20 -78 -58 -140 -94 -22 -12 -43 -27 -46 -32 -3 -5 -10 -9 -15 -9 -5 -1 -48
-20 -95 -42 -105 -50 -118 -56 -248 -101 -154 -52 -262 -67 -496 -68 -335 0
-561 42 -745 140 -88 47 -260 163 -260 176 0 6 -2 8 -5 5 -19 -19 -304 289
-305 330 0 6 -5 12 -10 12 -11 0 -97 174 -104 210 -1 3 -7 19 -13 35 -34 82
-64 228 -93 445 -23 175 -29 266 -36 560 -10 401 -5 711 12 771 9 30 19 75 24
100 38 209 145 484 273 699 62 105 179 222 305 307 101 68 242 139 298 151 19
4 236 7 482 7 444 0 447 0 512 -24z m1791 -1574 c79 -53 123 -163 122 -307 -2
-172 -74 -417 -194 -653 -48 -94 -49 -101 -38 -135 46 -137 -22 -292 -127
-292 -33 0 -74 33 -55 44 6 4 8 20 5 35 -6 28 -4 29 27 28 43 -2 58 26 64 119
3 47 9 70 19 76 8 5 13 15 10 22 -3 8 8 56 25 107 36 108 75 286 90 414 15
125 17 385 3 475 -14 99 -9 106 49 67z m-3712 -974 c1 -23 -5 -35 -20 -44 -32
-17 -40 1 -24 56 24 79 27 84 35 50 4 -16 8 -44 9 -62z"/>
<path d="M2265 4973 c-11 -2 -56 -11 -100 -19 -194 -38 -310 -98 -396 -207
-57 -72 -52 -116 7 -59 109 103 235 143 577 182 93 11 175 24 182 30 20 17 24
49 8 65 -11 12 -41 15 -136 14 -67 -1 -131 -3 -142 -6z"/>
<path d="M2878 4453 c7 -3 16 -2 19 1 4 3 -2 6 -13 5 -11 0 -14 -3 -6 -6z"/>
<path d="M2020 4389 c-58 -10 -140 -45 -183 -79 -55 -43 -121 -208 -103 -255
11 -31 28 -10 52 66 46 146 160 229 314 229 92 0 96 -9 22 -45 -74 -36 -109
-69 -142 -132 -43 -83 -35 -247 14 -278 27 -17 219 -65 260 -65 17 0 42 7 56
15 69 39 71 40 85 22 35 -49 92 14 115 128 l12 59 20 -27 c27 -38 42 -34 35 8
-8 47 -87 167 -152 230 -67 64 -146 103 -244 121 -86 15 -86 15 -161 3z m150
-189 c11 -11 20 -31 20 -45 0 -30 -32 -65 -60 -65 -24 0 -70 42 -70 63 0 8 9
26 21 41 25 31 61 34 89 6z"/>
<path d="M3830 4336 c-136 -30 -197 -64 -282 -154 -78 -83 -128 -174 -135
-247 -3 -30 -3 -55 0 -55 4 0 19 24 33 53 32 62 119 193 135 203 9 5 10 0 4
-17 -4 -13 -10 -60 -12 -104 -5 -76 -3 -83 29 -144 49 -95 67 -105 186 -104
101 1 153 16 165 47 9 23 68 32 82 12 43 -59 115 55 115 182 0 112 -64 215
-161 259 -21 10 -39 21 -39 26 0 13 68 7 132 -13 119 -36 185 -105 228 -236
36 -106 62 -72 31 39 -40 144 -130 220 -295 252 -91 17 -140 18 -216 1z m-43
-168 c27 -25 29 -54 7 -86 -30 -43 -114 -15 -114 38 0 25 43 70 66 70 10 0 28
-10 41 -22z"/>
<path d="M2580 3973 c0 -24 16 -48 23 -36 8 13 -3 53 -14 53 -5 0 -9 -8 -9
-17z"/>
<path d="M2704 3317 c-9 -25 32 -101 75 -140 31 -28 52 -37 108 -46 94 -16
155 -2 206 47 36 34 75 92 62 92 -3 0 -27 -16 -53 -35 -56 -40 -106 -50 -197
-40 -77 8 -148 50 -176 104 -14 27 -20 31 -25 18z"/>
<path d="M4720 3119 c0 -5 5 -7 10 -4 6 3 10 8 10 11 0 2 -4 4 -10 4 -5 0 -10
-5 -10 -11z"/>
<path d="M2386 2891 c21 -21 219 -69 376 -91 156 -23 498 -9 657 26 83 18 211
58 211 65 0 13 -17 11 -132 -12 -177 -37 -190 -39 -303 -50 -203 -20 -452 -1
-673 51 -89 21 -152 26 -136 11z"/>
</g>
</svg>
